<mxfile host="Electron" agent="Mozilla/5.0 (Windows NT 10.0; Win64; x64) AppleWebKit/537.36 (KHTML, like Gecko) draw.io/28.1.2 Chrome/138.0.7204.243 Electron/37.4.0 Safari/537.36" version="28.1.2">
  <diagram name="Page-1" id="sRkR4tpJqNtrIq0TJF8j">
    <mxGraphModel dx="1221" dy="734" grid="1" gridSize="10" guides="1" tooltips="1" connect="1" arrows="1" fold="1" page="1" pageScale="1" pageWidth="1654" pageHeight="2336" math="0" shadow="0">
      <root>
        <mxCell id="0" />
        <mxCell id="1" parent="0" />
        <mxCell id="FjBZvYUED2jKyHiAw6r2-55" value="" style="rounded=0;whiteSpace=wrap;html=1;fillColor=none;" vertex="1" parent="1">
          <mxGeometry x="420" y="40" width="1000" height="510" as="geometry" />
        </mxCell>
        <mxCell id="FjBZvYUED2jKyHiAw6r2-1" value="" style="rounded=0;whiteSpace=wrap;html=1;fillStyle=dashed;fillColor=default;dashed=1;dashPattern=8 8;strokeWidth=3;" vertex="1" parent="1">
          <mxGeometry x="470" y="170" width="120" height="350" as="geometry" />
        </mxCell>
        <mxCell id="FjBZvYUED2jKyHiAw6r2-2" value="&lt;font style=&quot;font-size: 16px;&quot;&gt;Sources&lt;/font&gt;" style="rounded=0;whiteSpace=wrap;html=1;fillColor=#fff2cc;strokeColor=#d6b656;shadow=1;gradientColor=#ffd966;" vertex="1" parent="1">
          <mxGeometry x="485" y="150" width="90" height="30" as="geometry" />
        </mxCell>
        <mxCell id="FjBZvYUED2jKyHiAw6r2-3" value="&lt;font style=&quot;font-size: 16px;&quot;&gt;&lt;b&gt;CRM&lt;/b&gt;&lt;/font&gt;" style="image;aspect=fixed;html=1;points=[];align=center;fontSize=12;image=img/lib/azure2/general/Folder_Blank.svg;" vertex="1" parent="1">
          <mxGeometry x="505.35" y="230" width="49.29" height="40" as="geometry" />
        </mxCell>
        <mxCell id="FjBZvYUED2jKyHiAw6r2-4" value="&lt;span style=&quot;font-size: 16px;&quot;&gt;&lt;b&gt;ERP&lt;/b&gt;&lt;/span&gt;" style="image;aspect=fixed;html=1;points=[];align=center;fontSize=12;image=img/lib/azure2/general/Folder_Blank.svg;" vertex="1" parent="1">
          <mxGeometry x="505.36" y="380" width="49.29" height="40" as="geometry" />
        </mxCell>
        <mxCell id="FjBZvYUED2jKyHiAw6r2-5" value="" style="rounded=0;whiteSpace=wrap;html=1;fillStyle=cross-hatch;fillColor=#ffe6cc;dashed=1;strokeColor=#DAB088;strokeWidth=3;" vertex="1" parent="1">
          <mxGeometry x="680" y="170" width="170" height="350" as="geometry" />
        </mxCell>
        <mxCell id="FjBZvYUED2jKyHiAw6r2-6" value="&lt;span style=&quot;font-size: 16px;&quot;&gt;&lt;b&gt;Bronze Layer&lt;/b&gt;&lt;/span&gt;" style="rounded=0;whiteSpace=wrap;html=1;fillColor=#ffe6cc;strokeColor=#d79b00;shadow=1;" vertex="1" parent="1">
          <mxGeometry x="690" y="150" width="140" height="30" as="geometry" />
        </mxCell>
        <mxCell id="FjBZvYUED2jKyHiAw6r2-7" value="&lt;b&gt;&lt;font style=&quot;font-size: 13px;&quot;&gt;crm_cust_info&lt;/font&gt;&lt;/b&gt;" style="rounded=1;whiteSpace=wrap;html=1;fillColor=#ffe6cc;strokeColor=#d79b00;" vertex="1" parent="1">
          <mxGeometry x="700" y="200" width="130" height="30" as="geometry" />
        </mxCell>
        <mxCell id="FjBZvYUED2jKyHiAw6r2-8" value="&lt;b&gt;&lt;font style=&quot;font-size: 13px;&quot;&gt;crm_prd_info&lt;/font&gt;&lt;/b&gt;" style="rounded=1;whiteSpace=wrap;html=1;fillColor=#ffe6cc;strokeColor=#d79b00;" vertex="1" parent="1">
          <mxGeometry x="700" y="240" width="130" height="30" as="geometry" />
        </mxCell>
        <mxCell id="FjBZvYUED2jKyHiAw6r2-9" value="&lt;b&gt;&lt;font style=&quot;font-size: 13px;&quot;&gt;crm_sales_details&lt;/font&gt;&lt;/b&gt;" style="rounded=1;whiteSpace=wrap;html=1;fillColor=#ffe6cc;strokeColor=#d79b00;" vertex="1" parent="1">
          <mxGeometry x="700" y="290" width="130" height="30" as="geometry" />
        </mxCell>
        <mxCell id="FjBZvYUED2jKyHiAw6r2-10" value="&lt;b&gt;&lt;font style=&quot;font-size: 13px;&quot;&gt;erm_cust_az12&lt;/font&gt;&lt;/b&gt;" style="rounded=1;whiteSpace=wrap;html=1;fillColor=#ffe6cc;strokeColor=#d79b00;" vertex="1" parent="1">
          <mxGeometry x="700" y="340" width="130" height="30" as="geometry" />
        </mxCell>
        <mxCell id="FjBZvYUED2jKyHiAw6r2-11" value="&lt;b&gt;&lt;font style=&quot;font-size: 13px;&quot;&gt;erm_loc_a101&lt;/font&gt;&lt;/b&gt;" style="rounded=1;whiteSpace=wrap;html=1;fillColor=#ffe6cc;strokeColor=#d79b00;" vertex="1" parent="1">
          <mxGeometry x="700" y="390" width="130" height="30" as="geometry" />
        </mxCell>
        <mxCell id="FjBZvYUED2jKyHiAw6r2-12" value="&lt;span style=&quot;font-size: 13px;&quot;&gt;&lt;b&gt;erm_px_cat_g1v2&lt;/b&gt;&lt;/span&gt;" style="rounded=1;whiteSpace=wrap;html=1;fillColor=#ffe6cc;strokeColor=#d79b00;" vertex="1" parent="1">
          <mxGeometry x="700" y="440" width="130" height="30" as="geometry" />
        </mxCell>
        <mxCell id="FjBZvYUED2jKyHiAw6r2-13" value="" style="endArrow=classic;html=1;rounded=0;entryX=0;entryY=0.5;entryDx=0;entryDy=0;" edge="1" parent="1" target="FjBZvYUED2jKyHiAw6r2-8">
          <mxGeometry width="50" height="50" relative="1" as="geometry">
            <mxPoint x="560" y="255" as="sourcePoint" />
            <mxPoint x="640" y="220" as="targetPoint" />
            <Array as="points">
              <mxPoint x="630" y="255" />
            </Array>
          </mxGeometry>
        </mxCell>
        <mxCell id="FjBZvYUED2jKyHiAw6r2-16" value="" style="endArrow=classic;html=1;rounded=0;entryX=0;entryY=0.5;entryDx=0;entryDy=0;" edge="1" parent="1">
          <mxGeometry width="50" height="50" relative="1" as="geometry">
            <mxPoint x="630" y="260" as="sourcePoint" />
            <mxPoint x="700" y="214.5" as="targetPoint" />
            <Array as="points">
              <mxPoint x="630" y="214.5" />
            </Array>
          </mxGeometry>
        </mxCell>
        <mxCell id="FjBZvYUED2jKyHiAw6r2-17" value="" style="endArrow=classic;html=1;rounded=0;entryX=0;entryY=0.5;entryDx=0;entryDy=0;" edge="1" parent="1">
          <mxGeometry width="50" height="50" relative="1" as="geometry">
            <mxPoint x="630" y="250" as="sourcePoint" />
            <mxPoint x="700" y="310" as="targetPoint" />
            <Array as="points">
              <mxPoint x="630" y="310" />
            </Array>
          </mxGeometry>
        </mxCell>
        <mxCell id="FjBZvYUED2jKyHiAw6r2-18" value="" style="endArrow=classic;html=1;rounded=0;entryX=0;entryY=0.5;entryDx=0;entryDy=0;" edge="1" parent="1">
          <mxGeometry width="50" height="50" relative="1" as="geometry">
            <mxPoint x="560" y="397.75" as="sourcePoint" />
            <mxPoint x="700" y="397.75" as="targetPoint" />
            <Array as="points">
              <mxPoint x="630" y="397.75" />
            </Array>
          </mxGeometry>
        </mxCell>
        <mxCell id="FjBZvYUED2jKyHiAw6r2-19" value="" style="endArrow=classic;html=1;rounded=0;entryX=0;entryY=0.5;entryDx=0;entryDy=0;" edge="1" parent="1">
          <mxGeometry width="50" height="50" relative="1" as="geometry">
            <mxPoint x="630" y="402.75" as="sourcePoint" />
            <mxPoint x="700" y="357.25" as="targetPoint" />
            <Array as="points">
              <mxPoint x="630" y="357.25" />
            </Array>
          </mxGeometry>
        </mxCell>
        <mxCell id="FjBZvYUED2jKyHiAw6r2-20" value="" style="endArrow=classic;html=1;rounded=0;entryX=0;entryY=0.5;entryDx=0;entryDy=0;" edge="1" parent="1">
          <mxGeometry width="50" height="50" relative="1" as="geometry">
            <mxPoint x="630" y="392.75" as="sourcePoint" />
            <mxPoint x="700" y="452.75" as="targetPoint" />
            <Array as="points">
              <mxPoint x="630" y="452.75" />
            </Array>
          </mxGeometry>
        </mxCell>
        <mxCell id="FjBZvYUED2jKyHiAw6r2-21" value="" style="rounded=0;whiteSpace=wrap;html=1;fillStyle=cross-hatch;fillColor=#f5f5f5;dashed=1;strokeColor=#666666;strokeWidth=3;gradientColor=#b3b3b3;" vertex="1" parent="1">
          <mxGeometry x="940" y="170" width="170" height="350" as="geometry" />
        </mxCell>
        <mxCell id="FjBZvYUED2jKyHiAw6r2-22" value="&lt;span style=&quot;font-size: 16px;&quot;&gt;&lt;b&gt;Silver Layer&lt;/b&gt;&lt;/span&gt;" style="rounded=0;whiteSpace=wrap;html=1;fillColor=#f5f5f5;strokeColor=#666666;shadow=1;gradientColor=#b3b3b3;" vertex="1" parent="1">
          <mxGeometry x="955" y="150" width="140" height="30" as="geometry" />
        </mxCell>
        <mxCell id="FjBZvYUED2jKyHiAw6r2-23" value="&lt;b&gt;&lt;font style=&quot;font-size: 13px;&quot;&gt;crm_cust_info&lt;/font&gt;&lt;/b&gt;" style="rounded=1;whiteSpace=wrap;html=1;fillColor=#f5f5f5;strokeColor=#666666;gradientColor=#b3b3b3;" vertex="1" parent="1">
          <mxGeometry x="960" y="200" width="130" height="30" as="geometry" />
        </mxCell>
        <mxCell id="FjBZvYUED2jKyHiAw6r2-24" value="&lt;b&gt;&lt;font style=&quot;font-size: 13px;&quot;&gt;crm_prd_info&lt;/font&gt;&lt;/b&gt;" style="rounded=1;whiteSpace=wrap;html=1;fillColor=#f5f5f5;strokeColor=#666666;gradientColor=#b3b3b3;" vertex="1" parent="1">
          <mxGeometry x="960" y="240" width="130" height="30" as="geometry" />
        </mxCell>
        <mxCell id="FjBZvYUED2jKyHiAw6r2-25" value="&lt;b&gt;&lt;font style=&quot;font-size: 13px;&quot;&gt;crm_sales_details&lt;/font&gt;&lt;/b&gt;" style="rounded=1;whiteSpace=wrap;html=1;fillColor=#f5f5f5;strokeColor=#666666;gradientColor=#b3b3b3;" vertex="1" parent="1">
          <mxGeometry x="960" y="290" width="130" height="30" as="geometry" />
        </mxCell>
        <mxCell id="FjBZvYUED2jKyHiAw6r2-26" value="&lt;b&gt;&lt;font style=&quot;font-size: 13px;&quot;&gt;erm_cust_az12&lt;/font&gt;&lt;/b&gt;" style="rounded=1;whiteSpace=wrap;html=1;fillColor=#f5f5f5;strokeColor=#666666;gradientColor=#b3b3b3;" vertex="1" parent="1">
          <mxGeometry x="960" y="340" width="130" height="30" as="geometry" />
        </mxCell>
        <mxCell id="FjBZvYUED2jKyHiAw6r2-27" value="&lt;b&gt;&lt;font style=&quot;font-size: 13px;&quot;&gt;erm_loc_a101&lt;/font&gt;&lt;/b&gt;" style="rounded=1;whiteSpace=wrap;html=1;fillColor=#f5f5f5;strokeColor=#666666;gradientColor=#b3b3b3;" vertex="1" parent="1">
          <mxGeometry x="960" y="390" width="130" height="30" as="geometry" />
        </mxCell>
        <mxCell id="FjBZvYUED2jKyHiAw6r2-28" value="&lt;span style=&quot;font-size: 13px;&quot;&gt;&lt;b&gt;erm_px_cat_g1v2&lt;/b&gt;&lt;/span&gt;" style="rounded=1;whiteSpace=wrap;html=1;fillColor=#f5f5f5;strokeColor=#666666;gradientColor=#b3b3b3;" vertex="1" parent="1">
          <mxGeometry x="960" y="440" width="130" height="30" as="geometry" />
        </mxCell>
        <mxCell id="FjBZvYUED2jKyHiAw6r2-29" style="edgeStyle=orthogonalEdgeStyle;rounded=0;orthogonalLoop=1;jettySize=auto;html=1;entryX=0;entryY=0.5;entryDx=0;entryDy=0;" edge="1" parent="1" source="FjBZvYUED2jKyHiAw6r2-7" target="FjBZvYUED2jKyHiAw6r2-23">
          <mxGeometry relative="1" as="geometry" />
        </mxCell>
        <mxCell id="FjBZvYUED2jKyHiAw6r2-31" style="edgeStyle=orthogonalEdgeStyle;rounded=0;orthogonalLoop=1;jettySize=auto;html=1;entryX=0;entryY=0.5;entryDx=0;entryDy=0;" edge="1" parent="1">
          <mxGeometry relative="1" as="geometry">
            <mxPoint x="830" y="254.5" as="sourcePoint" />
            <mxPoint x="960" y="254.5" as="targetPoint" />
          </mxGeometry>
        </mxCell>
        <mxCell id="FjBZvYUED2jKyHiAw6r2-34" style="edgeStyle=orthogonalEdgeStyle;rounded=0;orthogonalLoop=1;jettySize=auto;html=1;entryX=0;entryY=0.5;entryDx=0;entryDy=0;" edge="1" parent="1" source="FjBZvYUED2jKyHiAw6r2-9" target="FjBZvYUED2jKyHiAw6r2-25">
          <mxGeometry relative="1" as="geometry" />
        </mxCell>
        <mxCell id="FjBZvYUED2jKyHiAw6r2-35" style="edgeStyle=orthogonalEdgeStyle;rounded=0;orthogonalLoop=1;jettySize=auto;html=1;entryX=0;entryY=0.5;entryDx=0;entryDy=0;" edge="1" parent="1" source="FjBZvYUED2jKyHiAw6r2-10" target="FjBZvYUED2jKyHiAw6r2-26">
          <mxGeometry relative="1" as="geometry" />
        </mxCell>
        <mxCell id="FjBZvYUED2jKyHiAw6r2-36" style="edgeStyle=orthogonalEdgeStyle;rounded=0;orthogonalLoop=1;jettySize=auto;html=1;" edge="1" parent="1" source="FjBZvYUED2jKyHiAw6r2-11" target="FjBZvYUED2jKyHiAw6r2-27">
          <mxGeometry relative="1" as="geometry" />
        </mxCell>
        <mxCell id="FjBZvYUED2jKyHiAw6r2-37" style="edgeStyle=orthogonalEdgeStyle;rounded=0;orthogonalLoop=1;jettySize=auto;html=1;" edge="1" parent="1" source="FjBZvYUED2jKyHiAw6r2-12" target="FjBZvYUED2jKyHiAw6r2-28">
          <mxGeometry relative="1" as="geometry" />
        </mxCell>
        <mxCell id="FjBZvYUED2jKyHiAw6r2-38" value="" style="rounded=0;whiteSpace=wrap;html=1;fillStyle=cross-hatch;fillColor=#fff2cc;dashed=1;strokeColor=#d6b656;strokeWidth=3;gradientColor=#ffd966;" vertex="1" parent="1">
          <mxGeometry x="1210" y="170" width="170" height="350" as="geometry" />
        </mxCell>
        <mxCell id="FjBZvYUED2jKyHiAw6r2-39" value="&lt;span style=&quot;font-size: 16px;&quot;&gt;&lt;b&gt;Gold Layer&lt;/b&gt;&lt;/span&gt;" style="rounded=0;whiteSpace=wrap;html=1;fillColor=#fff2cc;strokeColor=#d6b656;shadow=1;gradientColor=#ffd966;" vertex="1" parent="1">
          <mxGeometry x="1225" y="150" width="140" height="30" as="geometry" />
        </mxCell>
        <mxCell id="FjBZvYUED2jKyHiAw6r2-40" value="&lt;b&gt;&lt;font style=&quot;font-size: 13px;&quot;&gt;fact_sales&lt;/font&gt;&lt;/b&gt;" style="rounded=1;whiteSpace=wrap;html=1;fillColor=#fff2cc;strokeColor=#d6b656;gradientColor=#ffd966;" vertex="1" parent="1">
          <mxGeometry x="1235" y="290" width="130" height="30" as="geometry" />
        </mxCell>
        <mxCell id="FjBZvYUED2jKyHiAw6r2-41" value="&lt;b&gt;&lt;font style=&quot;font-size: 13px;&quot;&gt;dim_customers&lt;/font&gt;&lt;/b&gt;" style="rounded=1;whiteSpace=wrap;html=1;fillColor=#fff2cc;strokeColor=#d6b656;gradientColor=#ffd966;" vertex="1" parent="1">
          <mxGeometry x="1230" y="220" width="130" height="30" as="geometry" />
        </mxCell>
        <mxCell id="FjBZvYUED2jKyHiAw6r2-42" value="&lt;b&gt;&lt;font style=&quot;font-size: 13px;&quot;&gt;dim_prodcuts&lt;/font&gt;&lt;/b&gt;" style="rounded=1;whiteSpace=wrap;html=1;fillColor=#fff2cc;strokeColor=#d6b656;gradientColor=#ffd966;" vertex="1" parent="1">
          <mxGeometry x="1235" y="370" width="130" height="30" as="geometry" />
        </mxCell>
        <mxCell id="FjBZvYUED2jKyHiAw6r2-46" value="" style="endArrow=classic;html=1;rounded=0;entryX=0;entryY=0.5;entryDx=0;entryDy=0;exitX=1;exitY=0.5;exitDx=0;exitDy=0;jumpStyle=gap;" edge="1" parent="1" source="FjBZvYUED2jKyHiAw6r2-25" target="FjBZvYUED2jKyHiAw6r2-40">
          <mxGeometry width="50" height="50" relative="1" as="geometry">
            <mxPoint x="1090" y="320" as="sourcePoint" />
            <mxPoint x="1140" y="270" as="targetPoint" />
          </mxGeometry>
        </mxCell>
        <mxCell id="FjBZvYUED2jKyHiAw6r2-47" value="" style="endArrow=classic;html=1;rounded=0;entryX=0;entryY=0.5;entryDx=0;entryDy=0;exitX=1;exitY=0.75;exitDx=0;exitDy=0;jumpStyle=gap;" edge="1" parent="1" source="FjBZvYUED2jKyHiAw6r2-23" target="FjBZvYUED2jKyHiAw6r2-41">
          <mxGeometry width="50" height="50" relative="1" as="geometry">
            <mxPoint x="1150" y="348" as="sourcePoint" />
            <mxPoint x="1295" y="270" as="targetPoint" />
          </mxGeometry>
        </mxCell>
        <mxCell id="FjBZvYUED2jKyHiAw6r2-48" value="" style="endArrow=classic;html=1;rounded=0;exitX=1;exitY=0.5;exitDx=0;exitDy=0;jumpStyle=gap;" edge="1" parent="1" source="FjBZvYUED2jKyHiAw6r2-26">
          <mxGeometry width="50" height="50" relative="1" as="geometry">
            <mxPoint x="1130" y="260" as="sourcePoint" />
            <mxPoint x="1230" y="235" as="targetPoint" />
          </mxGeometry>
        </mxCell>
        <mxCell id="FjBZvYUED2jKyHiAw6r2-49" value="" style="endArrow=classic;html=1;rounded=0;exitX=1;exitY=0.5;exitDx=0;exitDy=0;entryX=0;entryY=0.5;entryDx=0;entryDy=0;jumpStyle=gap;" edge="1" parent="1" source="FjBZvYUED2jKyHiAw6r2-27" target="FjBZvYUED2jKyHiAw6r2-41">
          <mxGeometry width="50" height="50" relative="1" as="geometry">
            <mxPoint x="1140" y="400" as="sourcePoint" />
            <mxPoint x="1230" y="310" as="targetPoint" />
          </mxGeometry>
        </mxCell>
        <mxCell id="FjBZvYUED2jKyHiAw6r2-50" value="" style="endArrow=classic;html=1;rounded=0;exitX=1;exitY=0.5;exitDx=0;exitDy=0;entryX=0;entryY=0.5;entryDx=0;entryDy=0;jumpStyle=gap;" edge="1" parent="1" source="FjBZvYUED2jKyHiAw6r2-28" target="FjBZvYUED2jKyHiAw6r2-42">
          <mxGeometry width="50" height="50" relative="1" as="geometry">
            <mxPoint x="1160" y="440" as="sourcePoint" />
            <mxPoint x="1305" y="390" as="targetPoint" />
          </mxGeometry>
        </mxCell>
        <mxCell id="FjBZvYUED2jKyHiAw6r2-51" value="" style="endArrow=classic;html=1;rounded=0;exitX=1;exitY=0.5;exitDx=0;exitDy=0;entryX=0;entryY=0.5;entryDx=0;entryDy=0;jumpStyle=gap;" edge="1" parent="1" source="FjBZvYUED2jKyHiAw6r2-24" target="FjBZvYUED2jKyHiAw6r2-42">
          <mxGeometry width="50" height="50" relative="1" as="geometry">
            <mxPoint x="1130" y="350" as="sourcePoint" />
            <mxPoint x="1275" y="300" as="targetPoint" />
          </mxGeometry>
        </mxCell>
        <mxCell id="FjBZvYUED2jKyHiAw6r2-53" value="&lt;font style=&quot;font-size: 16px;&quot;&gt;Data Flow Diagram Between the layers&amp;nbsp;&lt;/font&gt;" style="rounded=0;whiteSpace=wrap;html=1;fillColor=#f8cecc;gradientColor=#ea6b66;strokeColor=#b85450;" vertex="1" parent="1">
          <mxGeometry x="760" y="60" width="300" height="60" as="geometry" />
        </mxCell>
      </root>
    </mxGraphModel>
  </diagram>
</mxfile>
